<svg width="1920" height="1080" xmlns="http://www.w3.org/2000/svg" style="--line-color: #777; --line-width: 1; --line-opacity: 1; --line-dasharray: none;"><defs>
            <linearGradient id="grid-linear-gradient" x1="0%" y1="0%" x2="100%" y2="100%">
                <stop offset="0%" stop-color="var(--line-color)" stop-opacity="1"/>
                <stop offset="100%" stop-color="var(--line-color)" stop-opacity="0"/>
            </linearGradient>

            <radialGradient id="grid-radial-gradient" cx="50%" cy="50%" r="50%" fx="50%" fy="50%" href="#grid-linear-gradient" gradientUnits="userSpaceOnUse"/>
        </defs>
            <g class="Grid" style="--line-color: url(#grid-radial-gradient);" stroke="var(--line-color)" stroke-width="var(--line-width)" stroke-opacity="var(--line-opacity)" stroke-dasharray="var(--line-dasharray)"><g class="horizontal-lines"><path d="M 0 0 L 0 1080"/><path d="M 30 0 L 30 1080"/><path d="M 60 0 L 60 1080"/><path d="M 90 0 L 90 1080"/><path d="M 120 0 L 120 1080"/><path d="M 150 0 L 150 1080"/><path d="M 180 0 L 180 1080"/><path d="M 210 0 L 210 1080"/><path d="M 240 0 L 240 1080"/><path d="M 270 0 L 270 1080"/><path d="M 300 0 L 300 1080"/><path d="M 330 0 L 330 1080"/><path d="M 360 0 L 360 1080"/><path d="M 390 0 L 390 1080"/><path d="M 420 0 L 420 1080"/><path d="M 450 0 L 450 1080"/><path d="M 480 0 L 480 1080"/><path d="M 510 0 L 510 1080"/><path d="M 540 0 L 540 1080"/><path d="M 570 0 L 570 1080"/><path d="M 600 0 L 600 1080"/><path d="M 630 0 L 630 1080"/><path d="M 660 0 L 660 1080"/><path d="M 690 0 L 690 1080"/><path d="M 720 0 L 720 1080"/><path d="M 750 0 L 750 1080"/><path d="M 780 0 L 780 1080"/><path d="M 810 0 L 810 1080"/><path d="M 840 0 L 840 1080"/><path d="M 870 0 L 870 1080"/><path d="M 900 0 L 900 1080"/><path d="M 930 0 L 930 1080"/><path d="M 960 0 L 960 1080"/><path d="M 990 0 L 990 1080"/><path d="M 1020 0 L 1020 1080"/><path d="M 1050 0 L 1050 1080"/><path d="M 1080 0 L 1080 1080"/><path d="M 1110 0 L 1110 1080"/><path d="M 1140 0 L 1140 1080"/><path d="M 1170 0 L 1170 1080"/><path d="M 1200 0 L 1200 1080"/><path d="M 1230 0 L 1230 1080"/><path d="M 1260 0 L 1260 1080"/><path d="M 1290 0 L 1290 1080"/><path d="M 1320 0 L 1320 1080"/><path d="M 1350 0 L 1350 1080"/><path d="M 1380 0 L 1380 1080"/><path d="M 1410 0 L 1410 1080"/><path d="M 1440 0 L 1440 1080"/><path d="M 1470 0 L 1470 1080"/><path d="M 1500 0 L 1500 1080"/><path d="M 1530 0 L 1530 1080"/><path d="M 1560 0 L 1560 1080"/><path d="M 1590 0 L 1590 1080"/><path d="M 1620 0 L 1620 1080"/><path d="M 1650 0 L 1650 1080"/><path d="M 1680 0 L 1680 1080"/><path d="M 1710 0 L 1710 1080"/><path d="M 1740 0 L 1740 1080"/><path d="M 1770 0 L 1770 1080"/><path d="M 1800 0 L 1800 1080"/><path d="M 1830 0 L 1830 1080"/><path d="M 1860 0 L 1860 1080"/><path d="M 1890 0 L 1890 1080"/></g><g class="vertical-lines"><path d="M 0 0 L 1920 0"/><path d="M 0 30 L 1920 30"/><path d="M 0 60 L 1920 60"/><path d="M 0 90 L 1920 90"/><path d="M 0 120 L 1920 120"/><path d="M 0 150 L 1920 150"/><path d="M 0 180 L 1920 180"/><path d="M 0 210 L 1920 210"/><path d="M 0 240 L 1920 240"/><path d="M 0 270 L 1920 270"/><path d="M 0 300 L 1920 300"/><path d="M 0 330 L 1920 330"/><path d="M 0 360 L 1920 360"/><path d="M 0 390 L 1920 390"/><path d="M 0 420 L 1920 420"/><path d="M 0 450 L 1920 450"/><path d="M 0 480 L 1920 480"/><path d="M 0 510 L 1920 510"/><path d="M 0 540 L 1920 540"/><path d="M 0 570 L 1920 570"/><path d="M 0 600 L 1920 600"/><path d="M 0 630 L 1920 630"/><path d="M 0 660 L 1920 660"/><path d="M 0 690 L 1920 690"/><path d="M 0 720 L 1920 720"/><path d="M 0 750 L 1920 750"/><path d="M 0 780 L 1920 780"/><path d="M 0 810 L 1920 810"/><path d="M 0 840 L 1920 840"/><path d="M 0 870 L 1920 870"/><path d="M 0 900 L 1920 900"/><path d="M 0 930 L 1920 930"/><path d="M 0 960 L 1920 960"/><path d="M 0 990 L 1920 990"/><path d="M 0 1020 L 1920 1020"/><path d="M 0 1050 L 1920 1050"/></g></g>
        </svg>